<svg width="1280" height="1280" viewBox="0 0 1280 1280" fill="none" xmlns="http://www.w3.org/2000/svg">
  <defs>
    <linearGradient id="voice-bg" x1="0" y1="0" x2="0" y2="1">
      <stop offset="0" stop-color="#4A7BB8"/>
      <stop offset="1" stop-color="#173556"/>
    </linearGradient>
  </defs>
  <rect width="1280" height="1280" fill="#FFFFFF"/>
  <g transform="translate(0,320)">
    <rect x="1" y="1" width="1278" height="638" fill="#FFFFFF" stroke="#E7E7E7" stroke-width="2"/>
    <rect x="0" y="0" width="1280" height="6" fill="#3F6DA8"/>

    <!-- Voice logo（沿用 favicon 精确路径，缩放进 168 方框，origin 96,212） -->
    <g transform="translate(75.6,191.6) scale(0.20388)">
      <rect x="100" y="100" width="824" height="824" rx="205" fill="url(#voice-bg)"/>
      <g fill="#ffffff">
        <rect x="198" y="427.4" width="84" height="169.2" rx="42"/>
        <rect x="334" y="356.9" width="84" height="310.2" rx="42"/>
        <rect x="470" y="277"   width="84" height="470"   rx="42"/>
        <rect x="606" y="356.9" width="84" height="310.2" rx="42"/>
        <rect x="742" y="427.4" width="84" height="169.2" rx="42"/>
      </g>
    </g>

    <g font-family="'Inter','PingFang SC','Microsoft YaHei',system-ui,-apple-system,sans-serif">
      <text x="312" y="268" font-size="96" font-weight="700" fill="#262626" letter-spacing="-1">Aham Voice</text>
      <text x="316" y="332" font-size="40" font-weight="500" fill="#6E6E6E">录音转写与会议纪要 · macOS</text>
      <text x="316" y="382" font-size="26" font-weight="400" fill="#9B9B9B">本地离线转写 · 说话人分离 · 声学情绪 · DeepSeek 纪要</text>
    </g>

    <g transform="translate(96,456)">
      <rect width="38" height="38" rx="8" fill="#4A7BB8"/>
      <rect x="50" width="38" height="38" rx="8" fill="#173556"/>
      <rect x="100" width="38" height="38" rx="8" fill="#F3F3F3"/>
      <rect x="150" width="38" height="38" rx="8" fill="#E7E7E7"/>
      <rect x="200" width="38" height="38" rx="8" fill="#262626"/>
    </g>

    <g font-family="'Inter','PingFang SC','Microsoft YaHei',system-ui,sans-serif">
      <text x="98" y="560" font-size="26" font-weight="400" fill="#6E6E6E">把灵光一现，做成能用的 AI 工具。</text>
      <text x="1182" y="560" font-size="26" font-weight="600" fill="#3F6DA8" text-anchor="end">macOS</text>
    </g>
  </g>
</svg>
