<svg width="1280" height="640" viewBox="0 0 1280 640" xmlns="http://www.w3.org/2000/svg"><rect x="0" y="0" width="1280" height="640" fill="#FFFFFF"/><rect x="1" y="1" width="1278" height="638" fill="none" stroke="#E7E7E7" stroke-width="2"/><rect x="0" y="0" width="1280" height="6" fill="#336EE8"/><g transform="translate(96,212)"><rect width="168" height="168" rx="42" fill="#336EE8"/><rect x="15.5" y="64.0" width="11" height="40" rx="6" fill="#FFFFFF"/><rect x="36.5" y="50.0" width="11" height="68" rx="6" fill="#FFFFFF"/><rect x="57.5" y="36.0" width="11" height="96" rx="6" fill="#FFFFFF"/><rect x="78.5" y="24.0" width="11" height="120" rx="6" fill="#FFFFFF"/><rect x="99.5" y="36.0" width="11" height="96" rx="6" fill="#FFFFFF"/><rect x="120.5" y="50.0" width="11" height="68" rx="6" fill="#FFFFFF"/><rect x="141.5" y="64.0" width="11" height="40" rx="6" fill="#FFFFFF"/></g><text x="312" y="268" font-family="'Inter','PingFang SC','Microsoft YaHei',system-ui,-apple-system,sans-serif" font-size="96" font-weight="700" letter-spacing="-1" fill="#262626">Aham Voice</text><text x="316" y="332" font-family="'Inter','PingFang SC','Microsoft YaHei',system-ui,-apple-system,sans-serif" font-size="40" font-weight="500" fill="#6E6E6E">录音转写与会议纪要 · macOS</text><text x="316" y="382" font-family="'Inter','PingFang SC','Microsoft YaHei',system-ui,-apple-system,sans-serif" font-size="26" fill="#9B9B9B">本地离线转写 · 说话人分离 · AI 会议纪要</text><g transform="translate(96,456)"><rect x="0" y="0" width="38" height="38" rx="8" fill="#336EE8"/><rect x="50" y="0" width="38" height="38" rx="8" fill="#FFFFFF"/><rect x="50" y="0" width="38" height="38" rx="8" fill="none" stroke="#E7E7E7" stroke-width="1.5"/><rect x="100" y="0" width="38" height="38" rx="8" fill="#F3F3F3"/><rect x="150" y="0" width="38" height="38" rx="8" fill="#E7E7E7"/><rect x="200" y="0" width="38" height="38" rx="8" fill="#262626"/></g><text x="98" y="560" font-family="'Inter','PingFang SC','Microsoft YaHei',system-ui,-apple-system,sans-serif" font-size="26" fill="#6E6E6E">把灵光一现，做成能用的 AI 工具。</text><text x="1182" y="560" font-family="'Inter','PingFang SC','Microsoft YaHei',system-ui,-apple-system,sans-serif" font-size="26" font-weight="700" text-anchor="end" fill="#336EE8">macOS App</text></svg>