<svg width="1280" height="640" viewBox="0 0 1280 640" xmlns="http://www.w3.org/2000/svg"><rect x="0" y="0" width="1280" height="640" fill="#FFFFFF"/><rect x="0" y="0" width="1280" height="6" fill="#336EE8"/><rect x="96" y="212" width="168" height="168" rx="40" fill="#336EE8"/><rect x="105.0" y="274.0" width="12" height="44" rx="6" fill="#FFFFFF"/><rect x="128.0" y="259.0" width="12" height="74" rx="6" fill="#FFFFFF"/><rect x="151.0" y="244.0" width="12" height="104" rx="6" fill="#FFFFFF"/><rect x="174.0" y="232.0" width="12" height="128" rx="6" fill="#FFFFFF"/><rect x="197.0" y="244.0" width="12" height="104" rx="6" fill="#FFFFFF"/><rect x="220.0" y="259.0" width="12" height="74" rx="6" fill="#FFFFFF"/><rect x="243.0" y="274.0" width="12" height="44" rx="6" fill="#FFFFFF"/><text x="312" y="300" font-family="Inter, 'PingFang SC', 'Microsoft YaHei', sans-serif" font-size="84" font-weight="700" fill="#262626">Aham Voice</text><text x="314" y="348" font-family="Inter, 'PingFang SC', 'Microsoft YaHei', sans-serif" font-size="30" fill="#6E6E6E">录音转写与会议纪要 · macOS</text><text x="316" y="396" font-family="Inter, 'PingFang SC', 'Microsoft YaHei', sans-serif" font-size="20" fill="#9B9B9B">本地离线转写 · 说话人分离 · AI 会议纪要</text><rect x="96" y="458" width="40" height="40" rx="6" fill="#336EE8"/><rect x="146" y="458" width="40" height="40" rx="6" fill="#FFFFFF"/><rect x="146" y="458" width="40" height="40" rx="6" fill="none" stroke="#E7E7E7" stroke-width="1"/><rect x="196" y="458" width="40" height="40" rx="6" fill="#F3F3F3"/><rect x="246" y="458" width="40" height="40" rx="6" fill="#E7E7E7"/><rect x="296" y="458" width="40" height="40" rx="6" fill="#262626"/><text x="96" y="560" font-family="Inter, 'PingFang SC', 'Microsoft YaHei', sans-serif" font-size="22" fill="#6E6E6E">把灵光一现，做成能用的 AI 工具。</text><text x="1184" y="560" font-family="Inter, 'PingFang SC', 'Microsoft YaHei', sans-serif" font-size="22" font-weight="700" text-anchor="end" fill="#336EE8">macOS App</text></svg>